PathFileType	4	(X/Y/Z)	s09c0303.trc
DataRate	CameraRate	NumFrames	NumMarkers	Units	OrigDataRate	OrigDataStartFrame	OrigNumFrames
200	200	6	50	mm	200	0	2000
Frame#	Time	racr			lacr			c7			jug			rlel			rdr			llel			ldr			s2			lic			ric			lasi			rasi			rpsi			lpsi			rgt			lgt			rth1			rth2			rth3			rth4			rlfc			rmfc			rsh1			rsh2			rsh3			rsh4			rlmal			rmmal			rcal			rtoe			rmt5			lth1			lth2			lth4			lth3			llfc			lmfc			llmal			lmmal			lcal			lmt5			lsh1			lsh2			lsh3			lsh4			ltoe			SBIKE			LBIKE			RBIKE			
		X1	Y1	Z1	X2	Y2	Z2	X3	Y3	Z3	X4	Y4	Z4	X5	Y5	Z5	X6	Y6	Z6	X7	Y7	Z7	X8	Y8	Z8	X9	Y9	Z9	X10	Y10	Z10	X11	Y11	Z11	X12	Y12	Z12	X13	Y13	Z13	X14	Y14	Z14	X15	Y15	Z15	X16	Y16	Z16	X17	Y17	Z17	X18	Y18	Z18	X19	Y19	Z19	X20	Y20	Z20	X21	Y21	Z21	X22	Y22	Z22	X23	Y23	Z23	X24	Y24	Z24	X25	Y25	Z25	X26	Y26	Z26	X27	Y27	Z27	X28	Y28	Z28	X29	Y29	Z29	X30	Y30	Z30	X31	Y31	Z31	X32	Y32	Z32	X33	Y33	Z33	X34	Y34	Z34	X35	Y35	Z35	X36	Y36	Z36	X37	Y37	Z37	X38	Y38	Z38	X39	Y39	Z39	X40	Y40	Z40	X41	Y41	Z41	X42	Y42	Z42	X43	Y43	Z43	X44	Y44	Z44	X45	Y45	Z45	X46	Y46	Z46	X47	Y47	Z47	X48	Y48	Z48	X49	Y49	Z49	X50	Y50	Z50	
0	0.0000	449.356071	1267.052566	-109.320001	434.067060	1253.638318	-400.150084	408.439175	1276.915996	-249.924163	409.613935	1143.870659	-249.146160	505.166138	1033.642641	-15.282592	704.781350	874.211456	-58.278025	478.693834	999.670026	-500.762037	697.377998	877.633175	-444.584725	-73.516099	1128.725264	-233.592741	62.828537	1119.025173	-378.902338	72.092756	1111.416983	-83.924013	101.650080	1062.773248	-360.192078	109.147641	1051.981526	-102.985175	-39.860482	1155.064403	-173.395868	-42.228428	1165.397448	-281.634422	31.508373	970.088445	-40.138142	22.127135	1006.862010	-429.545092	117.821591	856.517487	-44.889336	187.152667	804.841567	-53.173466	218.287511	721.656190	-65.046598	213.780132	824.110486	-70.527071	262.453595	635.631701	-97.413675	244.591223	622.435757	-193.609153	197.270365	554.946282	-67.243877	174.332920	468.948265	-84.172916	112.397254	407.071526	-83.349783	195.232619	461.812939	-116.513888	57.298976	322.782332	-85.921506	60.241564	335.808089	-163.372128	-26.295897	303.107404	-123.606572	231.207827	241.133977	-124.644472	145.600893	241.437126	-61.067361	144.908808	944.171558	-429.953083	229.992183	937.006381	-419.962139	241.969793	970.360075	-407.772524	303.911674	886.480040	-418.879310	385.548880	831.999804	-400.833568	406.083236	821.328373	-304.490214	323.909316	476.436368	-407.747884	335.515933	485.912694	-332.961772	255.078770	426.163365	-367.729351	425.234040	400.778654	-436.581131	367.609467	733.674171	-421.705349	375.117295	647.279705	-412.803117	337.336821	567.369133	-411.576695	400.870274	645.918739	-383.185752	514.772743	440.269443	-368.290847	-65.246381	850.310360	-240.917097	21.245230	83.540970	-442.336249	21.239246	83.785914	-43.891209	
1	0.0050	449.280698	1266.966992	-109.221170	433.793705	1253.738924	-400.241458	408.285063	1276.946885	-249.872094	409.434944	1143.896307	-249.190559	505.094445	1033.570396	-15.323913	704.800506	874.213265	-58.262073	478.780786	999.845315	-500.614040	697.394944	877.624356	-444.547371	-73.654435	1128.685624	-233.579187	62.703369	1119.061788	-378.855043	71.979715	1111.376108	-83.916622	101.550846	1062.802084	-360.180944	109.039302	1051.926688	-102.996753	-40.017147	1155.003858	-173.395137	-42.381750	1165.339647	-281.609953	31.434281	970.021869	-40.132665	22.073484	1006.779114	-429.549589	117.771138	856.455700	-44.847667	187.082146	804.794864	-53.128142	218.216219	721.602870	-64.986769	213.727187	824.067324	-70.506144	262.414487	635.573236	-97.386180	244.549057	622.401977	-193.570474	197.231327	554.917936	-67.204515	174.302107	468.904260	-84.135007	112.354534	407.040015	-83.331625	195.216272	461.792794	-116.477776	57.251395	322.761599	-85.913853	60.214715	335.743017	-163.363378	-26.336490	303.080843	-123.635811	231.201261	241.161582	-124.637608	145.590704	241.441089	-61.075128	144.874107	944.143549	-429.975861	229.979766	937.046347	-419.942224	241.930418	970.351610	-407.814579	303.902651	886.481036	-418.896377	385.510776	832.025324	-400.855319	406.112655	821.331292	-304.544465	323.911916	476.481722	-407.758400	335.521167	485.970283	-332.935940	255.076737	426.203938	-367.723012	425.243838	400.788687	-436.584049	367.612378	733.670033	-421.725540	375.123434	647.298787	-412.812101	337.333504	567.362257	-411.593190	400.885609	645.958404	-383.214192	514.786649	440.263382	-368.273246	-65.233281	850.319027	-240.917218	21.241254	83.549106	-442.335142	21.251235	83.779713	-43.896794	
2	0.0100	449.155933	1266.932865	-109.149639	433.554997	1253.862573	-400.294691	408.122180	1277.008071	-249.960059	409.244594	1143.953968	-249.222790	505.039253	1033.527000	-15.348937	704.798738	874.218568	-58.265303	478.864039	1000.057802	-500.454967	697.418049	877.600488	-444.498929	-73.770887	1128.604991	-233.556488	62.578725	1119.100841	-378.808731	71.872488	1111.344664	-83.896182	101.455744	1062.834418	-360.136704	108.936398	1051.883383	-102.984452	-40.144022	1154.927588	-173.385547	-42.486605	1165.247804	-281.628800	31.367453	969.959150	-40.122498	22.030835	1006.738418	-429.543379	117.711256	856.407419	-44.823447	187.019441	804.745523	-53.088471	218.123710	721.530834	-64.967553	213.662552	824.036996	-70.453555	262.367557	635.538671	-97.344076	244.516561	622.383285	-193.526715	197.182756	554.894084	-67.174447	174.261410	468.869819	-84.104565	112.314247	407.005613	-83.310362	195.170059	461.762987	-116.461708	57.213645	322.733985	-85.899807	60.189894	335.715959	-163.358565	-26.354874	303.034992	-123.629110	231.200802	241.169279	-124.634880	145.577069	241.424587	-61.059661	144.840203	944.129256	-430.004868	229.948323	937.047119	-419.950911	241.882791	970.354005	-407.833533	303.874549	886.478876	-418.905970	385.484554	832.063489	-400.897877	406.081570	821.393005	-304.566576	323.931901	476.512163	-407.752177	335.524713	485.994886	-332.946191	254.856067	426.330828	-367.998350	425.238188	400.803108	-436.577190	367.625564	733.701637	-421.730279	375.130209	647.328205	-412.812536	337.347034	567.376494	-411.611620	400.889364	646.003018	-383.215214	514.795139	440.274188	-368.284712	-65.236911	850.314172	-240.906039	21.241158	83.541428	-442.333109	21.251231	83.770187	-43.880166	
3	0.0150	448.782614	1267.620355	-108.505664	433.309542	1254.003566	-400.343667	407.954359	1276.607236	-249.842351	409.081132	1144.528801	-249.420503	504.979820	1033.455283	-15.374040	704.797026	874.183057	-58.260491	478.958973	1000.270260	-500.282368	697.428702	877.585291	-444.448470	-73.387480	1130.008857	-234.330951	62.454184	1119.139406	-378.762997	71.754692	1111.287136	-83.859471	101.374146	1062.852349	-360.092513	108.636967	1051.561103	-102.940482	-39.970350	1156.194005	-172.064616	-41.467269	1164.565260	-281.947904	31.627131	969.815391	-39.856873	21.966877	1006.689786	-429.538200	117.666612	856.392880	-44.679115	187.383650	804.250920	-53.002944	218.062141	721.505881	-64.913686	213.612188	823.997500	-70.381580	262.384685	635.479710	-97.194652	245.129041	622.114695	-193.217208	197.136507	554.864001	-67.146362	174.258958	468.784808	-83.950313	112.417813	406.824833	-83.345276	195.064522	461.627795	-116.635952	56.677238	323.441939	-85.385735	61.951972	334.786787	-164.332181	-26.361851	302.960017	-123.588891	231.179619	241.183180	-124.628617	145.584942	241.419114	-61.057503	144.824358	943.835633	-430.072731	229.299411	937.344509	-421.161482	241.625725	970.823371	-407.831195	303.843723	886.331839	-419.007038	385.442196	831.977541	-400.952134	406.033953	821.428569	-304.549814	323.693944	476.970233	-407.838821	335.550962	486.030572	-332.953893	254.862157	426.385904	-368.001839	425.243108	400.812999	-436.588320	367.620629	733.728884	-421.745088	375.248859	647.521827	-413.403246	337.367144	567.404391	-411.609876	401.042193	645.785712	-383.049160	514.800569	440.268462	-368.280330	-65.273623	850.332737	-241.001412	21.236764	83.542358	-442.336776	21.248958	83.775561	-43.878811	
4	0.0200	448.533210	1267.799182	-108.857013	432.946430	1254.321853	-400.373216	407.828213	1276.608054	-249.757753	408.629210	1145.036804	-249.442632	504.714952	1033.719581	-15.417477	704.425373	874.668615	-58.350692	478.935465	1000.577848	-499.995352	697.238612	877.654988	-444.400805	-73.486589	1130.029973	-234.730565	62.329983	1119.178211	-378.718576	71.406711	1111.532889	-83.849366	101.418748	1062.858554	-359.701877	108.450176	1051.877546	-103.074899	-40.166792	1156.167073	-171.996225	-41.657346	1164.578130	-281.876723	31.241459	970.049296	-39.924211	21.980850	1006.801589	-429.369367	117.394811	856.625367	-44.727140	187.255007	804.444038	-52.902369	217.838145	721.850987	-64.783404	213.459954	824.309787	-70.169226	262.102420	635.915802	-97.071917	245.008920	622.412246	-193.265078	196.873663	555.147876	-67.071544	174.127318	469.240005	-83.839593	112.066226	407.215569	-83.125537	194.702329	462.123650	-116.509264	56.786506	323.290036	-85.467204	61.206770	335.341001	-164.226750	-26.421914	302.894164	-123.674603	231.076492	241.434238	-124.533022	145.464043	241.662210	-60.917072	144.752357	944.027642	-430.000945	229.173667	937.543970	-421.087578	241.597270	970.781724	-407.889734	303.530720	886.570531	-419.088518	385.379316	832.024062	-401.196120	405.887236	822.037659	-304.516537	323.663435	476.974673	-407.907758	335.597642	486.292940	-332.988048	255.027017	426.402144	-367.737960	425.178796	401.139005	-436.568982	367.387435	734.163483	-422.107125	375.022946	648.009051	-413.635952	337.158849	567.722988	-411.587702	400.980211	645.998262	-382.939058	514.651434	440.446715	-368.342466	-65.251689	850.310092	-241.001756	21.024651	83.673613	-442.387083	21.160810	83.919000	-43.932488	
5	0.0250	448.432697	1267.765072	-108.878745	432.667429	1254.519650	-400.355852	407.673945	1276.656169	-249.699684	408.500638	1144.921201	-249.493523	504.638553	1033.709254	-15.447287	704.494285	874.607504	-58.356763	478.993226	1000.765109	-499.818531	696.934908	877.300653	-444.087242	-73.610292	1129.933119	-234.702306	62.205997	1119.215302	-378.675859	71.280163	1111.519914	-83.863582	101.370449	1062.900188	-359.599070	108.336660	1051.872813	-103.063576	-40.285803	1156.103742	-172.036497	-41.741516	1164.560445	-281.870410	31.120047	970.050070	-39.932178	21.873162	1006.759256	-429.408845	117.294194	856.648694	-44.697461	187.203455	804.454454	-52.860870	217.650283	721.700424	-64.978356	213.382602	824.357065	-70.079557	262.036843	635.974381	-97.028144	244.943240	622.478735	-193.281223	196.800374	555.188535	-67.042655	174.119331	469.324479	-83.801414	112.030327	407.219521	-83.094408	194.743234	462.027048	-116.502154	56.813736	323.223387	-85.454284	60.998477	335.456541	-164.201272	-26.423055	302.847687	-123.586889	231.073600	241.453426	-124.517308	145.439388	241.705569	-60.894841	144.721640	944.020505	-429.999480	229.121960	937.578621	-421.069412	241.556049	970.774665	-407.931061	303.529044	886.580360	-419.037792	385.417490	832.041228	-401.190220	405.833107	822.169101	-304.478040	323.571209	477.106781	-407.958549	335.602242	486.357215	-332.973432	255.008156	426.456344	-367.737524	425.167551	401.132617	-436.597843	367.446783	734.202584	-422.091715	375.102675	647.994652	-413.558906	337.186447	567.732657	-411.552585	400.987824	646.071817	-382.910822	514.631039	440.465983	-368.325405	-65.252351	850.300475	-240.990853	21.027170	83.697922	-442.358302	21.150457	83.928280	-43.925009	
